<?xml version="1.0" standalone="no"?>
<!DOCTYPE svg PUBLIC "-//W3C//DTD SVG 20010904//EN"
 "http://www.w3.org/TR/2001/REC-SVG-20010904/DTD/svg10.dtd">
<svg version="1.0" xmlns="http://www.w3.org/2000/svg"
 width="700.000000pt" height="700.000000pt" viewBox="0 0 700.000000 700.000000"
 preserveAspectRatio="xMidYMid meet">
<metadata>
Created by potrace 1.14, written by Peter Selinger 2001-2017
</metadata>
<g transform="translate(0.000000,700.000000) scale(0.100000,-0.100000)"
fill="#000000" stroke="none">
<path d="M3575 6541 c-158 -45 -240 -126 -370 -365 -74 -137 -120 -198 -165
-221 -16 -8 -91 -29 -167 -47 -111 -26 -160 -32 -253 -32 -107 -1 -118 1 -160
26 -52 30 -90 89 -90 139 1 80 81 179 174 214 43 17 51 17 75 4 35 -19 44 -79
12 -79 -15 0 -21 -6 -21 -23 0 -34 19 -47 67 -47 57 0 88 29 97 92 17 112 -78
210 -205 212 -120 2 -290 -120 -356 -255 -38 -77 -59 -179 -73 -353 -12 -149
-21 -189 -53 -237 -32 -48 -236 -201 -336 -251 -76 -39 -90 -43 -157 -43 -79
0 -107 13 -148 69 -33 44 -29 145 9 214 50 91 118 128 159 86 21 -20 20 -34
-1 -50 -14 -10 -16 -17 -7 -31 24 -39 104 -22 130 28 36 70 -38 187 -130 207
-59 12 -129 -1 -178 -33 -79 -52 -161 -193 -181 -311 -15 -88 2 -195 54 -342
93 -264 92 -285 -9 -464 -121 -211 -195 -295 -285 -319 -99 -26 -185 30 -207
137 -28 135 35 264 110 224 17 -9 20 -17 15 -39 -13 -59 43 -65 90 -10 31 38
32 66 2 110 -52 78 -151 103 -236 60 -100 -51 -146 -151 -146 -316 0 -166 40
-245 220 -437 117 -124 161 -190 171 -255 l6 -43 217 0 216 0 24 123 c146 772
727 1396 1485 1597 198 53 291 64 526 64 235 0 328 -11 526 -64 653 -173 1186
-668 1407 -1306 35 -101 80 -281 92 -366 l6 -48 220 0 219 0 0 28 c0 15 -5 59
-11 97 -15 103 -13 272 4 327 54 176 233 197 337 40 66 -99 60 -192 -11 -192
-21 0 -28 5 -31 22 -4 29 -34 35 -59 12 -13 -12 -19 -30 -19 -60 0 -34 5 -47
29 -67 121 -101 311 37 287 210 -9 70 -69 185 -133 253 -85 92 -171 130 -397
175 -239 47 -262 59 -339 185 -121 197 -167 308 -167 399 0 95 56 167 137 178
107 14 253 -87 253 -175 0 -25 -6 -35 -26 -44 -22 -10 -28 -10 -39 5 -24 33
-65 13 -65 -30 0 -33 26 -80 51 -94 13 -6 39 -8 64 -4 135 20 201 164 134 295
-21 42 -108 128 -166 164 -23 14 -70 35 -105 47 -90 30 -237 23 -408 -21 -137
-35 -248 -43 -289 -21 -42 23 -234 162 -281 203 -133 117 -173 245 -103 329
39 45 80 62 153 63 134 2 233 -71 182 -134 -16 -20 -21 -21 -39 -9 -18 10 -24
11 -37 0 -25 -21 -19 -50 18 -87 48 -48 86 -44 149 15 41 38 57 73 57 128 -1
108 -70 186 -200 227 -135 43 -268 33 -392 -30 -25 -13 -104 -67 -175 -120
-140 -106 -210 -144 -263 -144 -19 0 -102 14 -183 30 -232 48 -335 97 -376
182 -28 58 -27 116 2 159 81 121 326 148 315 35 -3 -27 -6 -31 -30 -28 -23 2
-29 -2 -34 -24 -10 -38 32 -74 85 -74 38 0 75 28 100 77 15 30 14 119 -3 151
-21 39 -75 89 -118 106 -50 21 -176 19 -253 -3z"/>
<path d="M3780 4736 c0 -56 293 -324 330 -301 15 9 12 31 -7 46 -28 24 -53 91
-53 146 l0 51 -67 25 c-128 48 -203 60 -203 33z"/>
<path d="M3622 4715 c-61 -28 -112 -62 -112 -74 0 -11 92 -71 101 -66 3 3 9
23 13 45 3 23 19 54 36 74 48 54 41 58 -38 21z"/>
<path d="M3706 4719 c-44 -35 -83 -128 -58 -142 9 -6 123 40 139 56 8 9 4 23
-21 60 l-33 47 -27 -21z"/>
<path d="M4070 4648 c0 -29 31 -116 45 -128 14 -11 14 -10 5 16 -6 15 -10 43
-8 62 2 26 -2 38 -19 49 -20 13 -23 13 -23 1z"/>
<path d="M3454 4607 c-20 -54 107 -132 415 -256 114 -47 156 -60 165 -51 8 8
6 14 -8 23 -27 17 -538 288 -553 294 -7 3 -15 -2 -19 -10z"/>
<path d="M3728 4588 c-38 -17 -68 -34 -68 -37 0 -5 217 -125 254 -140 9 -4 3
85 -7 95 -3 3 -19 -2 -36 -10 -64 -34 -88 -14 -71 59 12 49 12 65 3 64 -5 0
-38 -14 -75 -31z"/>
<path d="M3820 4560 c-15 -55 -4 -66 44 -49 20 7 36 16 36 19 0 3 -15 21 -34
39 l-35 34 -11 -43z"/>
<path d="M4144 4575 c-9 -37 20 -78 49 -69 38 11 42 22 16 50 -40 43 -58 48
-65 19z"/>
<path d="M3395 4516 c-14 -23 -25 -47 -25 -52 0 -37 535 -304 610 -304 11 0
19 15 26 51 13 59 23 50 -124 108 -128 51 -306 140 -394 197 l-68 43 -25 -43z"/>
<path d="M3936 4493 c-11 -11 -7 -48 8 -68 13 -18 15 -18 40 -2 15 10 24 22
21 27 -10 17 -62 49 -69 43z"/>
<path d="M4195 4440 c-30 -59 -32 -91 -7 -113 27 -25 30 -22 30 31 0 27 3 67
7 90 4 23 4 42 1 42 -3 0 -17 -22 -31 -50z"/>
<path d="M4250 4488 c0 -3 11 -30 25 -60 14 -29 25 -66 25 -82 0 -28 0 -29 20
-11 33 30 25 66 -25 115 -25 24 -45 41 -45 38z"/>
<path d="M4237 4446 c-15 -38 -7 -113 14 -140 26 -33 39 -26 39 22 0 49 -43
144 -53 118z"/>
<path d="M3341 4413 c0 -5 21 -21 47 -38 88 -56 107 -132 77 -305 -27 -154
-17 -234 37 -296 63 -72 134 -84 192 -34 26 24 43 55 76 145 34 91 49 121 78
146 34 30 39 31 94 25 l59 -6 -3 37 -3 37 -95 28 c-52 15 -98 27 -102 28 -4 0
-28 -66 -54 -147 -34 -109 -53 -154 -74 -175 -38 -38 -82 -38 -120 0 -41 42
-48 102 -25 232 32 179 32 192 -5 233 -43 49 -182 118 -179 90z"/>
<path d="M3986 4403 l-30 -16 28 -14 c33 -17 39 -14 34 20 -3 25 -4 25 -32 10z"/>
<path d="M3265 4379 c-138 -22 -231 -74 -261 -146 -10 -22 -14 -77 -14 -178
l0 -145 214 0 214 0 11 78 c35 231 36 255 15 298 -17 34 -103 107 -123 103 -3
-1 -28 -5 -56 -10z m-20 -153 c39 -17 55 -42 55 -86 0 -44 -16 -69 -56 -86
-29 -12 -39 -12 -68 0 -40 17 -56 42 -56 86 0 43 16 69 53 85 40 18 32 17 72
1z"/>
<path d="M3570 4243 c0 -27 -7 -103 -15 -171 -8 -67 -12 -135 -9 -152 13 -62
79 -79 116 -30 10 14 29 69 42 123 14 54 34 116 46 139 11 22 20 42 18 43 -6
6 -188 95 -193 95 -3 0 -5 -21 -5 -47z"/>
<path d="M3855 4007 c-24 -24 -41 -59 -66 -137 -27 -84 -42 -113 -75 -147 -34
-36 -47 -43 -80 -43 -64 0 -139 42 -174 96 -16 27 -30 54 -30 61 0 12 -62 13
-358 11 l-357 -3 -67 -33 c-143 -70 -203 -215 -203 -487 1 -221 46 -367 138
-452 56 -52 95 -63 228 -63 l106 0 5 149 c5 131 9 156 31 204 34 74 88 131
155 164 l57 28 330 5 c314 5 332 6 370 27 47 25 95 74 121 123 17 31 19 64 22
262 l3 227 -33 21 c-49 29 -84 26 -123 -13z"/>
<path d="M4068 3693 c-3 -144 -5 -163 -27 -208 -32 -63 -99 -131 -159 -158
-44 -21 -65 -22 -377 -27 -316 -5 -332 -6 -371 -27 -54 -29 -117 -101 -132
-151 -8 -26 -12 -137 -12 -333 0 -275 1 -295 21 -335 61 -128 284 -213 524
-200 245 12 426 100 463 225 7 21 12 91 12 155 l0 116 -255 0 -255 0 0 30 0
30 410 0 c450 0 448 0 508 60 71 71 131 241 139 396 9 168 -39 392 -103 486
-15 21 -48 51 -73 66 -43 25 -56 27 -178 30 l-131 4 -4 -159z m-216 -1113 c27
-27 30 -36 25 -73 -13 -93 -131 -117 -173 -34 -51 97 71 184 148 107z"/>
<path d="M1036 3163 c5 -43 9 -143 9 -223 0 -137 -2 -149 -26 -195 -60 -117
-183 -137 -277 -45 -52 50 -85 113 -86 166 -1 49 17 74 55 74 21 0 28 -5 31
-22 4 -29 34 -35 59 -12 13 12 19 30 19 60 0 35 -5 47 -30 68 -120 101 -310
-38 -286 -211 9 -70 69 -185 133 -253 85 -92 171 -130 397 -175 239 -47 262
-59 339 -185 121 -197 167 -308 167 -399 0 -95 -56 -167 -137 -178 -107 -14
-253 87 -253 175 0 25 6 35 26 44 22 10 28 10 39 -5 24 -33 65 -13 65 30 0 33
-26 80 -51 94 -29 15 -100 3 -141 -24 -70 -48 -97 -121 -78 -213 20 -98 152
-218 291 -264 92 -31 238 -24 409 20 136 36 248 43 289 21 39 -22 252 -177
293 -213 122 -110 159 -238 91 -319 -39 -45 -80 -62 -153 -63 -134 -2 -233 71
-182 134 16 20 21 21 39 9 18 -10 24 -11 37 0 25 21 19 50 -18 87 -40 40 -64
42 -118 12 -113 -64 -118 -223 -10 -320 84 -76 283 -110 413 -72 84 25 137 56
276 160 140 106 209 144 263 144 19 0 102 -14 185 -31 228 -46 333 -98 374
-183 55 -112 -3 -211 -147 -252 -99 -29 -176 -2 -170 60 3 27 6 31 30 28 23
-2 29 2 34 24 6 22 2 32 -20 51 -39 33 -94 31 -128 -5 -38 -41 -48 -65 -48
-122 0 -62 16 -95 68 -142 55 -50 98 -61 201 -55 108 6 172 26 250 78 82 55
140 129 230 294 79 144 125 206 171 230 16 8 91 29 167 47 111 26 160 32 253
32 105 1 119 -1 158 -24 52 -29 92 -92 92 -141 -1 -80 -81 -179 -174 -214 -43
-17 -51 -17 -75 -4 -35 19 -44 79 -12 79 15 0 21 6 21 23 0 34 -19 47 -67 47
-57 0 -88 -29 -97 -92 -15 -101 60 -191 177 -212 55 -10 133 16 219 73 161
108 213 225 238 535 12 149 21 189 53 237 33 49 238 202 336 252 76 38 92 42
157 42 78 0 107 -13 148 -69 33 -44 29 -145 -9 -214 -50 -91 -118 -128 -159
-86 -21 20 -20 34 2 50 13 10 15 17 6 31 -25 41 -111 18 -133 -35 -18 -44 13
-126 62 -166 31 -25 49 -31 101 -34 87 -6 131 11 191 72 60 62 109 150 131
237 29 114 12 213 -81 479 -31 89 -36 115 -33 170 4 59 11 77 72 185 125 219
197 301 289 326 99 26 185 -30 207 -136 15 -70 5 -145 -23 -186 -32 -46 -50
-55 -82 -41 -22 10 -26 17 -20 41 13 59 -43 65 -90 10 -31 -38 -32 -66 -2
-110 52 -78 151 -103 236 -60 100 51 145 149 146 316 0 166 -40 245 -220 437
-117 124 -161 190 -171 255 l-6 43 -218 0 -217 0 -12 -74 c-127 -787 -721
-1441 -1495 -1646 -201 -53 -290 -64 -531 -64 -244 1 -354 15 -558 74 -715
206 -1262 782 -1430 1505 -14 61 -28 131 -32 158 l-6 47 -221 0 -221 0 9 -77z"/>
</g>
</svg>
