<?xml version="1.0" standalone="no"?>
<!DOCTYPE svg PUBLIC "-//W3C//DTD SVG 20010904//EN"
 "http://www.w3.org/TR/2001/REC-SVG-20010904/DTD/svg10.dtd">
<svg version="1.0" xmlns="http://www.w3.org/2000/svg"
 width="700.000000pt" height="700.000000pt" viewBox="0 0 700.000000 700.000000"
 preserveAspectRatio="xMidYMid meet">
<metadata>
Created by potrace 1.14, written by Peter Selinger 2001-2017
</metadata>
<g transform="translate(0.000000,700.000000) scale(0.100000,-0.100000)"
fill="#000000" stroke="none">
<path d="M4080 6074 c0 -43 148 -231 292 -370 110 -106 208 -184 310 -245 77
-47 83 -49 96 -32 35 46 34 51 -8 97 -77 84 -137 260 -128 377 l3 41 -110 44
c-162 63 -279 95 -372 101 -77 5 -83 4 -83 -13z"/>
<path d="M3865 6061 c-77 -19 -222 -96 -308 -164 l-38 -30 33 -34 c40 -42 163
-117 181 -110 7 2 21 42 31 87 19 82 65 162 124 214 12 11 22 25 22 33 0 14
-1 14 -45 4z"/>
<path d="M3917 6006 c-92 -91 -141 -220 -104 -270 13 -18 16 -18 68 2 59 22
216 95 238 110 11 8 -1 31 -55 111 -38 55 -74 101 -81 101 -7 0 -37 -24 -66
-54z"/>
<path d="M4704 5840 c9 -82 41 -176 73 -218 14 -18 27 -31 29 -29 3 2 -3 32
-12 66 -14 50 -16 74 -8 122 10 56 9 60 -13 74 -13 8 -35 23 -50 32 l-26 17 7
-64z"/>
<path d="M4120 5813 c-8 -3 -42 -18 -75 -34 -33 -15 -96 -43 -140 -62 -44 -19
-79 -38 -78 -42 1 -8 531 -295 544 -295 6 0 1 174 -6 198 -7 20 -35 14 -86
-18 -64 -42 -110 -49 -138 -21 -27 27 -27 65 -1 175 24 100 21 114 -20 99z"/>
<path d="M3411 5792 c-17 -31 -14 -45 18 -89 37 -51 180 -147 331 -223 122
-61 590 -259 750 -317 89 -32 95 -33 107 -17 19 26 17 31 -24 57 -62 39 -369
205 -673 362 -157 81 -318 168 -359 192 -91 54 -134 64 -150 35z"/>
<path d="M4856 5758 c-14 -54 -6 -114 21 -156 30 -46 31 -47 118 -8 l50 23
-81 81 c-45 45 -86 82 -92 82 -5 0 -12 -10 -16 -22z"/>
<path d="M4182 5733 c-28 -95 -27 -173 3 -173 24 0 155 62 155 73 0 13 -123
137 -137 137 -5 0 -15 -17 -21 -37z"/>
<path d="M3311 5645 c-16 -25 -41 -70 -57 -99 -24 -46 -26 -57 -15 -70 38 -46
302 -197 621 -356 321 -161 534 -249 638 -266 48 -8 47 -10 63 91 6 39 13 84
16 100 6 37 15 32 -283 150 -300 119 -630 285 -827 416 -134 89 -122 87 -156
34z"/>
<path d="M4416 5563 c-12 -12 -6 -114 9 -149 12 -30 18 -34 37 -28 38 11 72
31 91 52 18 19 17 21 -25 54 -68 55 -105 78 -112 71z"/>
<path d="M5060 5562 c0 -7 26 -68 57 -135 49 -105 57 -130 57 -184 1 -67 6
-69 49 -17 70 83 56 130 -73 259 -49 49 -90 84 -90 77z"/>
<path d="M4958 5442 c-82 -155 -80 -206 10 -263 58 -37 66 -36 47 1 -18 34
-20 131 -4 230 6 38 9 85 7 105 -3 36 -5 34 -60 -73z"/>
<path d="M5048 5484 c-3 -5 -11 -42 -18 -83 -20 -122 2 -212 68 -274 l29 -28
14 33 c18 43 16 132 -5 194 -20 61 -81 170 -88 158z"/>
<path d="M3187 5394 c-16 -16 -4 -30 50 -59 71 -37 162 -126 191 -186 50 -104
52 -197 8 -469 -34 -212 -40 -301 -27 -395 21 -149 105 -271 232 -334 108 -54
210 -40 285 41 49 52 78 110 139 283 88 246 129 316 208 354 52 25 145 28 207
6 23 -8 46 -15 51 -15 14 0 22 68 13 117 l-9 46 -70 19 c-38 10 -130 37 -203
60 -129 41 -132 41 -146 22 -18 -23 -51 -123 -112 -328 -53 -182 -77 -245
-113 -300 -70 -107 -237 -112 -305 -9 -69 104 -73 280 -11 573 43 202 45 298
9 347 -66 91 -363 260 -397 227z"/>
<path d="M4517 5369 c-32 -16 -55 -34 -52 -39 7 -11 68 -44 102 -54 20 -6 21
-4 20 59 -1 36 -4 65 -7 64 -3 0 -31 -13 -63 -30z"/>
<path d="M3000 5310 c-271 -48 -455 -141 -516 -262 -48 -95 -54 -142 -54 -440
l0 -278 460 0 460 0 0 48 c0 26 16 157 35 292 55 388 47 451 -68 555 -69 61
-147 105 -186 104 -15 0 -73 -9 -131 -19z m-23 -325 c79 -33 117 -97 111 -186
-8 -105 -85 -179 -187 -179 -132 0 -220 114 -187 241 30 115 150 171 263 124z"/>
<path d="M3647 4993 c-3 -82 -15 -220 -27 -308 -27 -197 -25 -343 5 -393 11
-18 39 -42 63 -54 38 -18 49 -19 82 -9 77 23 108 88 171 351 30 126 50 187 85
258 26 51 45 94 43 96 -5 5 -408 206 -412 206 -2 0 -7 -66 -10 -147z"/>
<path d="M4337 4606 c-54 -20 -104 -61 -137 -114 -16 -26 -59 -136 -95 -244
-37 -110 -80 -217 -97 -242 -43 -66 -123 -134 -165 -142 -97 -18 -263 33 -347
108 -51 44 -109 136 -126 198 l-11 41 -727 -3 -727 -3 -70 -24 c-268 -89 -411
-257 -489 -572 -41 -169 -51 -267 -51 -514 1 -212 3 -240 28 -360 32 -151 82
-307 128 -397 41 -81 174 -219 244 -253 83 -41 185 -55 400 -55 142 0 195 3
203 13 6 7 12 127 14 312 5 332 8 353 75 474 43 77 155 197 231 248 31 20 95
51 142 67 l85 31 610 1 c527 1 619 4 679 18 198 47 346 180 407 368 24 73 24
75 24 523 l0 450 -65 36 c-79 45 -113 53 -163 35z"/>
<path d="M4690 3948 c-1 -302 -11 -383 -63 -491 -70 -147 -184 -264 -322 -332
-132 -65 -128 -65 -770 -65 -639 -1 -684 -4 -802 -59 -84 -40 -198 -151 -241
-237 -63 -125 -63 -123 -60 -782 l3 -598 37 -76 c43 -85 143 -189 240 -246
124 -73 302 -136 483 -170 117 -21 412 -21 581 2 346 46 648 205 738 388 42
86 55 186 56 421 l0 207 -535 0 -535 0 0 60 0 60 808 0 c542 0 828 4 868 11
211 39 359 217 460 553 86 287 96 601 29 933 -52 254 -144 452 -262 563 -106
100 -191 120 -505 120 l-208 0 0 -262z m-537 -2329 c57 -16 104 -63 122 -122
8 -28 15 -60 15 -71 0 -68 -55 -156 -109 -178 -37 -15 -146 -11 -178 6 -115
59 -137 222 -44 315 53 53 121 71 194 50z"/>
</g>
</svg>
